<?xml version="1.0" standalone="no"?>
<!DOCTYPE svg PUBLIC "-//W3C//DTD SVG 20010904//EN"
 "http://www.w3.org/TR/2001/REC-SVG-20010904/DTD/svg10.dtd">
<svg version="1.0" xmlns="http://www.w3.org/2000/svg"
 width="194.000000pt" height="259.000000pt" viewBox="0 0 194.000000 259.000000"
 preserveAspectRatio="xMidYMid meet">

<g transform="translate(0.000000,259.000000) scale(0.100000,-0.100000)"
fill="#000000" stroke="none">
<path d="M1390 1545 l0 -765 110 0 110 0 0 765 0 765 -110 0 -110 0 0 -765z"/>
<path d="M690 1960 l0 -230 110 0 110 0 0 230 0 230 -110 0 -110 0 0 -230z"/>
<path d="M330 1045 l0 -765 110 0 110 0 0 765 0 765 -110 0 -110 0 0 -765z"/>
<path d="M1040 1580 l0 -230 110 0 110 0 0 230 0 230 -110 0 -110 0 0 -230z"/>
<path d="M690 1010 l0 -230 110 0 110 0 0 230 0 230 -110 0 -110 0 0 -230z"/>
<path d="M1040 1105 l0 -105 110 0 110 0 0 105 0 105 -110 0 -110 0 0 -105z"/>
<path d="M1040 630 l0 -230 110 0 110 0 0 230 0 230 -110 0 -110 0 0 -230z"/>
</g>
</svg>
